# xmcd
#
# Track frame offsets: 
#        150
#        13528
#        41256
#        56687
#        71335
#        85612
#        99866
#        110818
#        120681
#        134902
#        148360
#        161075
#        177096
#        191038
#        205318
#        233195
#        245104
#        259163
#        272714
#        284341
#        294573
#        313881
#        327688
#        342609
#
# Disc length: 4721 seconds
#
# Revision: 0
# Processed by: cddbd v1.5.1PL0 Copyright (c) Steve Scherf et al.
# Submitted via: ExactAudioCopy v0.95a5
#
DISCID=84126f18
DTITLE=Leadbelly - Blues and Folk Singer
DYEAR=2004
DGENRE=
TTITLE0=Packin' Truck
TTITLE1=Death Letter Blues
TTITLE2=The Bourgeois Blues
TTITLE3=Easy Rider
TTITLE4=T.B. Blues
TTITLE5=I'm on My Last Go Round
TTITLE6=Good Morning Blues
TTITLE7=How Long Blues
TTITLE8=Roberta
TTITLE9=Backwater Blues
TTITLE10=Grasshopper in My Pillow
TTITLE11=The National Defense Blues
TTITLE12=Beeky Deem, She Was a Gamblin' Girl
TTITLE13=The Gallis Pole
TTITLE14=Frankie and Albert
TTITLE15=Rock Island Line
TTITLE16=Midnight Special
TTITLE17=Take This Hammer
TTITLE18=(Goodnight) Irene
TTITLE19=John Henry
TTITLE20=John Hardy
TTITLE21=(Black Gal) Where Did You Sleep Last Night
TTITLE22=In New Orleans (House of the Rising Sun)
TTITLE23=Stew Ball
EXTD=
EXTT0=
EXTT1=
EXTT2=
EXTT3=
EXTT4=
EXTT5=
EXTT6=
EXTT7=
EXTT8=
EXTT9=
EXTT10=
EXTT11=
EXTT12=
EXTT13=
EXTT14=
EXTT15=
EXTT16=
EXTT17=
EXTT18=
EXTT19=
EXTT20=
EXTT21=
EXTT22=
EXTT23=
PLAYORDER=
